<svg width="578" height="578" viewBox="0 0 578 578" fill="none" xmlns="http://www.w3.org/2000/svg">
<path d="M578 442.054H0V442.344H578V442.054Z" fill="#EBEBEB"/>
<path d="M364.915 449.927H335.483V450.216H364.915V449.927Z" fill="#EBEBEB"/>
<path d="M526.489 456.181H456.747V456.47H526.489V456.181Z" fill="#EBEBEB"/>
<path d="M329.217 450.066H257.164V450.355H329.217V450.066Z" fill="#EBEBEB"/>
<path d="M210.438 458.712H195.364V459.002H210.438V458.712Z" fill="#EBEBEB"/>
<path d="M293.728 458.712H225.085V459.002H293.728V458.712Z" fill="#EBEBEB"/>
<path d="M105.092 453.834H60.6438V454.123H105.092V453.834Z" fill="#EBEBEB"/>
<path d="M273.972 390.497H50.76C49.0113 390.494 47.3354 389.797 46.1 388.559C44.8646 387.322 44.1708 385.645 44.1708 383.896V70.123C44.186 68.3844 44.8865 66.722 46.1203 65.4969C47.354 64.2718 49.0213 63.583 50.76 63.58H273.972C275.723 63.58 277.402 64.2754 278.639 65.5133C279.877 66.7512 280.573 68.4301 280.573 70.1808V383.896C280.573 385.647 279.877 387.326 278.639 388.564C277.402 389.801 275.723 390.497 273.972 390.497V390.497ZM50.76 63.8112C49.088 63.8143 47.4855 64.4806 46.3043 65.664C45.1232 66.8473 44.4598 68.451 44.4598 70.123V383.896C44.4598 385.568 45.1232 387.172 46.3043 388.355C47.4855 389.538 49.088 390.205 50.76 390.208H273.972C275.645 390.205 277.249 389.539 278.432 388.356C279.615 387.173 280.281 385.569 280.284 383.896V70.123C280.281 68.4499 279.615 66.8463 278.432 65.6632C277.249 64.4802 275.645 63.8143 273.972 63.8112H50.76Z" fill="#EBEBEB"/>
<path d="M524.026 390.497H300.803C299.053 390.494 297.376 389.797 296.139 388.56C294.901 387.323 294.205 385.646 294.202 383.896V70.123C294.22 68.3833 294.923 66.7209 296.159 65.4962C297.395 64.2714 299.063 63.5829 300.803 63.58H524.026C525.763 63.586 527.427 64.2762 528.659 65.501C529.89 66.7257 530.589 68.3864 530.604 70.123V383.896C530.604 385.643 529.912 387.318 528.679 388.555C527.446 389.793 525.773 390.491 524.026 390.497V390.497ZM300.803 63.8112C299.13 63.8143 297.526 64.4802 296.343 65.6632C295.16 66.8463 294.494 68.4499 294.491 70.123V383.896C294.494 385.569 295.16 387.173 296.343 388.356C297.526 389.539 299.13 390.205 300.803 390.208H524.026C525.699 390.205 527.303 389.539 528.486 388.356C529.669 387.173 530.335 385.569 530.338 383.896V70.123C530.335 68.4499 529.669 66.8463 528.486 65.6632C527.303 64.4802 525.699 63.8143 524.026 63.8112H300.803Z" fill="#EBEBEB"/>
<path d="M226.53 341.795H149.771L145.113 288.041H221.871L226.53 341.795Z" fill="#E6E6E6"/>
<path d="M230.506 341.795H153.748L149.089 288.041H225.848L230.506 341.795Z" fill="#F0F0F0"/>
<path d="M164.244 330.246L161.678 299.577H215.351L217.918 330.246H164.244Z" fill="white"/>
<path d="M243.789 341.795H234.784V442.054H243.789V341.795Z" fill="#E6E6E6"/>
<path d="M246.633 341.795H240.379V442.054H246.633V341.795Z" fill="#F0F0F0"/>
<path d="M159.459 352.857H246.633V341.795H159.459V352.857Z" fill="#F0F0F0"/>
<path d="M162.534 352.857H153.528V442.054H162.534V352.857Z" fill="#E6E6E6"/>
<path d="M165.377 352.857H159.123V442.054H165.377V352.857Z" fill="#F0F0F0"/>
<path d="M98.4334 352.857H89.4282V442.054H98.4334V352.857Z" fill="#E6E6E6"/>
<path d="M101.277 352.857H95.0232V442.054H101.277V352.857Z" fill="#F0F0F0"/>
<path d="M186.798 352.857H177.793V442.054H186.798V352.857Z" fill="#E6E6E6"/>
<path d="M189.63 352.857H183.376V442.054H189.63V352.857Z" fill="#F0F0F0"/>
<path d="M159.459 341.795H89.4282V352.857H159.459V341.795Z" fill="#E6E6E6"/>
<path d="M420.599 91.798H149.714V242.61H420.599V91.798Z" fill="#E0E0E0"/>
<path d="M435.477 91.798H151.078V242.61H435.477V91.798Z" fill="#F5F5F5"/>
<path d="M430.83 237.963V96.4451L155.725 96.4451V237.963L430.83 237.963Z" fill="white"/>
<path d="M267.117 237.963L319.056 96.4451H233.339L181.4 237.963H267.117Z" fill="#F5F5F5"/>
<path d="M349.621 237.963L401.56 96.4451H336.893L284.954 237.963H349.621Z" fill="#F5F5F5"/>
<path d="M506.455 298.017H483.428V442.054H506.455V298.017Z" fill="#E6E6E6"/>
<path d="M500.398 442.054H506.455V430.968H494.051L500.398 442.054Z" fill="#FAFAFA"/>
<path d="M294.144 298.017H271.117V442.054H294.144V298.017Z" fill="#E6E6E6"/>
<path d="M506.455 298.017H288.861V439.06H506.455V298.017Z" fill="#FAFAFA"/>
<path d="M502.34 343.529H292.988V303.693H502.34V343.529ZM294.144 342.373H501.184V304.849H294.144V342.373Z" fill="#E6E6E6"/>
<path d="M465.487 323.033H333.899C327.795 323.033 321.911 318.108 317.715 309.507L317.322 308.687H482.052L481.659 309.507C477.428 318.108 471.648 323.033 465.487 323.033ZM319.218 309.808C323.125 317.472 328.466 321.842 333.899 321.842H465.487C470.943 321.842 476.26 317.472 480.168 309.808H319.218Z" fill="#E6E6E6"/>
<path d="M294.919 442.054H288.861V430.968H301.265L294.919 442.054Z" fill="#FAFAFA"/>
<path d="M502.34 388.416H292.988V348.626H502.34V388.416ZM294.144 387.26H501.184V349.782H294.144V387.26Z" fill="#E6E6E6"/>
<path d="M465.487 367.966H333.899C327.795 367.966 321.911 363.03 317.715 354.441L317.322 353.609H482.052L481.659 354.441C477.428 362.984 471.648 367.966 465.487 367.966ZM319.218 354.765C323.125 362.429 328.466 366.81 333.899 366.81H465.487C470.943 366.81 476.26 362.429 480.168 354.765H319.218Z" fill="#E6E6E6"/>
<path d="M502.34 433.384H292.988V393.549H502.34V433.384ZM294.144 432.228H501.184V394.705H294.144V432.228Z" fill="#E6E6E6"/>
<path d="M465.487 412.889H333.899C327.795 412.889 321.911 407.964 317.715 399.375L317.322 398.543H482.052L481.659 399.375C477.428 407.964 471.648 412.889 465.487 412.889ZM319.218 399.699C323.125 407.363 328.466 411.733 333.899 411.733H465.487C470.943 411.733 476.26 407.363 480.168 399.699H319.218Z" fill="#E6E6E6"/>
<path d="M139.853 317.068V319.865H138.073L136.593 341.795H114.814L113.346 319.865H111.554V317.068H139.853Z" fill="#E6E6E6"/>
<path d="M132.686 262.655C130.905 249.592 113.276 245.87 90.9078 245.384C69.6259 244.933 62.8055 237.408 62.8055 237.408C62.8055 237.408 62.8748 267.891 93.5435 278.943C122.663 289.416 134.477 275.741 132.686 262.655Z" fill="#E6E6E6"/>
<path d="M121.819 292.26C122.189 286.896 130.767 277.024 151.401 281.509C166.314 284.757 171.863 277.024 171.863 277.024C171.863 277.024 170.475 298.849 148.049 305.404C126.744 311.634 121.16 301.716 121.819 292.26Z" fill="#E6E6E6"/>
<path d="M126.524 325.298C126.64 325.3 126.755 325.275 126.861 325.227C126.967 325.179 127.061 325.109 127.137 325.021C128.628 323.252 127.403 319.021 125.715 313.16C123.542 305.646 120.837 296.283 123.126 289.497C124.394 285.913 125.877 282.408 127.565 279.001C130.801 272.157 133.599 266.285 131.264 260.065C131.227 259.966 131.172 259.876 131.1 259.798C131.028 259.721 130.942 259.659 130.846 259.615C130.75 259.571 130.646 259.547 130.541 259.544C130.436 259.54 130.331 259.558 130.232 259.595C130.133 259.633 130.043 259.689 129.967 259.762C129.89 259.834 129.829 259.921 129.786 260.018C129.743 260.114 129.72 260.218 129.718 260.323C129.716 260.429 129.734 260.534 129.773 260.632C131.865 266.169 129.333 271.533 126.12 278.33C124.41 281.792 122.905 285.351 121.611 288.988C119.172 296.248 121.946 305.878 124.178 313.6C125.495 318.224 126.859 322.848 125.923 324.004C125.849 324.083 125.792 324.178 125.756 324.281C125.72 324.384 125.706 324.493 125.715 324.602C125.724 324.711 125.755 324.817 125.807 324.913C125.858 325.009 125.929 325.093 126.016 325.16C126.163 325.265 126.344 325.314 126.524 325.298V325.298Z" fill="#E6E6E6"/>
<path d="M289 494.259C412.787 494.259 513.137 488.401 513.137 481.173C513.137 473.946 412.787 468.088 289 468.088C165.213 468.088 64.8632 473.946 64.8632 481.173C64.8632 488.401 165.213 494.259 289 494.259Z" fill="#F5F5F5"/>
<path d="M288.954 417.374H124.802L115.82 153.378H279.972L288.954 417.374Z" fill="#009E9C"/>
<path d="M297.15 409.178H132.998L124.004 145.182H288.156L297.15 409.178Z" fill="#009E9C"/>
<path opacity="0.3" d="M297.15 409.178H132.998L124.004 145.182H288.156L297.15 409.178Z" fill="white"/>
<path d="M242.15 253.816C259.726 235.937 258.979 206.701 240.48 188.516C221.982 170.332 192.738 170.084 175.162 187.963C157.586 205.842 158.333 235.078 176.832 253.263C195.33 271.447 224.574 271.695 242.15 253.816Z" fill="#009E9C"/>
<path d="M246.771 220.9C247.008 227.191 245.635 233.437 242.783 239.049C239.705 245.097 235.003 250.167 229.204 253.692C223.405 257.216 216.738 259.055 209.953 259.002C203.008 258.964 196.194 257.101 190.197 253.599C184.199 250.097 179.228 245.079 175.781 239.049C172.568 233.524 170.773 227.288 170.556 220.9C170.343 215.947 171.139 211.002 172.896 206.365C174.653 201.729 177.334 197.499 180.777 193.931C184.219 190.363 188.351 187.532 192.922 185.61C197.492 183.689 202.405 182.716 207.363 182.752C217.577 182.824 227.37 186.828 234.709 193.932C242.047 201.036 246.367 210.694 246.771 220.9V220.9Z" fill="white"/>
<path opacity="0.6" d="M242.76 239.049C239.682 245.097 234.98 250.167 229.181 253.692C223.382 257.216 216.715 259.055 209.93 259.002C202.984 258.964 196.171 257.101 190.173 253.599C184.176 250.097 179.204 245.079 175.758 239.049C185.535 232.384 197.103 228.841 208.935 228.888C220.958 228.914 232.713 232.445 242.76 239.049Z" fill="#009E9C"/>
<path opacity="0.6" d="M220.532 219.949C226.995 213.375 226.72 202.625 219.918 195.938C213.116 189.251 202.363 189.16 195.9 195.735C189.437 202.309 189.712 213.059 196.514 219.746C203.316 226.433 214.069 226.524 220.532 219.949Z" fill="#009E9C"/>
<path d="M264.169 313.577H159.459L158.753 292.769H263.464L264.169 313.577Z" fill="white"/>
<path d="M265.441 350.765H160.719L160.014 329.957H264.736L265.441 350.765Z" fill="white"/>
<path d="M225.027 332.824L199.791 336.292C199.551 336.319 199.318 336.396 199.109 336.518C198.899 336.64 198.717 336.803 198.574 336.999C198.43 337.194 198.329 337.417 198.276 337.654C198.223 337.89 198.219 338.135 198.266 338.373L201.583 355.285C201.692 355.781 201.982 356.219 202.397 356.512C202.812 356.805 203.322 356.932 203.826 356.869L229.061 353.401C229.302 353.37 229.533 353.291 229.741 353.168C229.95 353.044 230.13 352.879 230.272 352.683C230.414 352.487 230.515 352.264 230.567 352.027C230.619 351.791 230.622 351.546 230.576 351.308L227.27 334.396C227.161 333.901 226.87 333.464 226.455 333.173C226.039 332.882 225.53 332.757 225.027 332.824V332.824ZM217.779 349.956L213.155 350.569L212.704 345.112C212.228 344.906 211.808 344.589 211.48 344.186C211.152 343.784 210.925 343.308 210.82 342.8C210.735 342.407 210.733 341.999 210.816 341.605C210.898 341.211 211.062 340.838 211.297 340.511C211.533 340.184 211.834 339.911 212.182 339.708C212.53 339.504 212.916 339.377 213.317 339.332C214.138 339.227 214.969 339.433 215.645 339.91C216.321 340.387 216.794 341.101 216.97 341.91C217.07 342.399 217.039 342.905 216.881 343.378C216.723 343.851 216.442 344.274 216.068 344.604L217.779 349.956Z" fill="#009E9C"/>
<path d="M222.53 331.911C222.084 331.967 221.633 331.856 221.265 331.597C220.897 331.338 220.639 330.951 220.542 330.512L220.218 328.859C219.756 326.603 218.492 324.591 216.659 323.197C214.827 321.802 212.551 321.12 210.253 321.276C209.094 321.342 207.962 321.656 206.936 322.199C205.909 322.741 205.011 323.498 204.302 324.418C203.594 325.338 203.092 326.4 202.83 327.531C202.568 328.662 202.553 329.837 202.786 330.974L203.155 332.882C203.199 333.093 203.197 333.311 203.151 333.522C203.105 333.733 203.015 333.931 202.888 334.106C202.761 334.28 202.598 334.425 202.412 334.533C202.225 334.641 202.017 334.708 201.803 334.731V334.731C201.356 334.794 200.902 334.684 200.533 334.424C200.164 334.165 199.907 333.774 199.815 333.333L199.502 331.726C199.185 330.224 199.175 328.674 199.472 327.168C199.769 325.662 200.367 324.231 201.231 322.963C202.095 321.694 203.206 320.613 204.498 319.785C205.791 318.956 207.237 318.398 208.75 318.143C212.032 317.592 215.4 318.325 218.155 320.192C220.911 322.058 222.842 324.913 223.547 328.165L223.917 330.061C223.96 330.275 223.958 330.496 223.91 330.709C223.862 330.922 223.769 331.122 223.638 331.297C223.507 331.471 223.341 331.616 223.15 331.722C222.959 331.828 222.748 331.892 222.53 331.911V331.911Z" fill="#009E9C"/>
<path d="M248.159 379.908H179.989L179.538 366.36H247.696L248.159 379.908Z" fill="#009E9C"/>
<path d="M215.27 303.173C215.291 303.667 215.21 304.16 215.035 304.622C214.859 305.084 214.591 305.506 214.247 305.862C213.903 306.217 213.491 306.499 213.035 306.691C212.579 306.882 212.089 306.979 211.594 306.976C210.575 306.968 209.598 306.569 208.864 305.861C208.13 305.153 207.697 304.191 207.652 303.173C207.632 302.678 207.712 302.185 207.888 301.723C208.064 301.261 208.332 300.839 208.676 300.483C209.019 300.128 209.432 299.846 209.888 299.654C210.344 299.463 210.834 299.366 211.328 299.369C212.348 299.374 213.327 299.773 214.062 300.481C214.796 301.189 215.229 302.153 215.27 303.173V303.173Z" fill="#263238"/>
<path d="M198.832 303.173C198.854 303.667 198.775 304.161 198.6 304.624C198.424 305.087 198.156 305.509 197.812 305.865C197.468 306.221 197.055 306.503 196.599 306.694C196.142 306.885 195.651 306.981 195.156 306.976C194.138 306.968 193.162 306.568 192.43 305.86C191.698 305.152 191.267 304.19 191.226 303.173C191.205 302.678 191.285 302.185 191.461 301.723C191.637 301.261 191.905 300.839 192.249 300.483C192.593 300.128 193.005 299.846 193.461 299.654C193.917 299.463 194.407 299.366 194.902 299.369C195.921 299.375 196.898 299.773 197.631 300.482C198.363 301.19 198.793 302.154 198.832 303.173V303.173Z" fill="#263238"/>
<path d="M182.498 303.173C182.518 303.667 182.438 304.16 182.262 304.622C182.086 305.084 181.818 305.506 181.474 305.862C181.131 306.217 180.718 306.499 180.262 306.691C179.806 306.882 179.316 306.979 178.822 306.976C177.803 306.971 176.825 306.572 176.093 305.863C175.36 305.155 174.93 304.191 174.891 303.173C174.871 302.678 174.951 302.185 175.127 301.723C175.303 301.261 175.571 300.839 175.915 300.483C176.258 300.128 176.671 299.846 177.127 299.654C177.583 299.463 178.073 299.366 178.567 299.369C179.586 299.375 180.564 299.773 181.296 300.482C182.029 301.19 182.459 302.154 182.498 303.173V303.173Z" fill="#263238"/>
<path d="M231.651 303.173C231.671 303.667 231.591 304.16 231.415 304.622C231.239 305.084 230.971 305.506 230.628 305.862C230.284 306.217 229.871 306.499 229.415 306.691C228.959 306.882 228.469 306.979 227.975 306.976C226.956 306.971 225.978 306.572 225.246 305.863C224.513 305.155 224.083 304.191 224.044 303.173C224.027 302.68 224.11 302.189 224.288 301.729C224.466 301.269 224.736 300.851 225.081 300.498C225.426 300.146 225.838 299.867 226.294 299.679C226.75 299.491 227.239 299.397 227.732 299.404C228.743 299.412 229.713 299.807 230.442 300.508C231.171 301.209 231.604 302.162 231.651 303.173V303.173Z" fill="#263238"/>
<path d="M248.031 303.173C248.053 303.667 247.974 304.161 247.799 304.624C247.624 305.087 247.356 305.509 247.012 305.865C246.668 306.221 246.255 306.503 245.798 306.694C245.341 306.885 244.85 306.981 244.355 306.976C243.337 306.968 242.361 306.568 241.629 305.86C240.898 305.152 240.466 304.19 240.425 303.173C240.404 302.678 240.485 302.185 240.661 301.723C240.836 301.261 241.104 300.839 241.448 300.483C241.792 300.128 242.204 299.846 242.66 299.654C243.116 299.463 243.606 299.366 244.101 299.369C245.12 299.375 246.098 299.773 246.83 300.482C247.562 301.19 247.993 302.154 248.031 303.173V303.173Z" fill="#263238"/>
<path d="M386 201.468C387.537 203.942 388.821 206.3 390.138 208.762C391.456 211.224 392.647 213.698 393.815 216.23C396.197 221.356 398.168 226.663 399.71 232.102C399.918 232.784 400.068 233.512 400.242 234.217L400.496 235.292L400.623 235.824L400.774 236.703C401.034 238.696 400.913 240.72 400.415 242.668C399.617 245.691 398.403 248.59 396.809 251.28C393.956 256.168 390.508 260.684 386.543 264.724L381.677 261.048C384.119 256.557 386.293 251.925 388.185 247.176C389.028 245.083 389.621 242.899 389.953 240.668C390.06 239.986 390.028 239.291 389.861 238.622L389.399 237.211C389.214 236.633 389.04 236.055 388.821 235.466C387.062 230.697 385.028 226.034 382.728 221.501C380.416 216.877 377.931 212.253 375.446 207.837L386 201.468Z" fill="#FF8B7B"/>
<path d="M382.913 259.441L377.596 262.25L383.7 269.394C383.7 269.394 387.514 266.816 387.688 262.886L382.913 259.441Z" fill="#FF8B7B"/>
<path d="M370.463 266.655L376.995 271.845L383.7 269.394L377.596 262.25L370.463 266.655Z" fill="#FF8B7B"/>
<path d="M348.129 163.643C348.002 164.291 347.551 164.742 347.135 164.661C346.719 164.58 346.476 163.979 346.603 163.343C346.731 162.707 347.181 162.187 347.609 162.326C348.037 162.464 348.257 162.996 348.129 163.643Z" fill="#263238"/>
<path d="M347.609 164.753C346.445 166.564 345.037 168.205 343.424 169.631C343.805 170.026 344.267 170.334 344.778 170.533C345.288 170.733 345.836 170.82 346.384 170.787L347.609 164.753Z" fill="#FF5652"/>
<path d="M345.528 187.434V179.85L355.562 181.006C355.562 181.006 355.401 187.526 349.782 189.445L345.528 187.434Z" fill="#FF8B7B"/>
<path d="M348.418 174.394L355.482 176.429L355.609 181.064L345.575 179.85L348.418 174.394Z" fill="#FF8B7B"/>
<path opacity="0.2" d="M355.482 176.429L348.418 174.394L347.043 177.03C347.118 179.107 347.767 181.122 348.918 182.852C350.069 184.583 351.676 185.961 353.563 186.833C354.776 185.138 355.485 183.134 355.609 181.053L355.482 176.429Z" fill="black"/>
<path d="M351.204 160.557C351.278 160.555 351.35 160.532 351.412 160.491C351.474 160.45 351.522 160.392 351.553 160.324C351.583 160.256 351.593 160.182 351.583 160.108C351.572 160.035 351.541 159.966 351.493 159.909C351.087 159.451 350.577 159.096 350.006 158.875C349.435 158.654 348.819 158.572 348.21 158.638C348.111 158.655 348.022 158.711 347.963 158.793C347.905 158.875 347.881 158.978 347.898 159.077C347.915 159.177 347.971 159.267 348.052 159.328C348.134 159.388 348.237 159.414 348.337 159.401C348.82 159.353 349.307 159.422 349.757 159.601C350.207 159.78 350.609 160.064 350.927 160.43C350.962 160.468 351.005 160.499 351.053 160.521C351.1 160.543 351.152 160.555 351.204 160.557Z" fill="#263238"/>
<path d="M365.978 175.342C364.822 181.295 364.105 189.538 368.29 193.503C368.29 193.503 366.672 199.537 355.574 199.537C343.424 199.537 349.736 194.243 349.736 194.243C354.788 192.671 354.742 186.925 353.586 182.301L365.978 175.342Z" fill="#FF8B7B"/>
<path d="M370.544 197.479C371.631 195.954 371.585 191.11 370.429 190.254C368.567 188.879 360.58 188.555 349.84 191.029C350.996 195.722 348.511 198.173 348.511 198.173L370.544 197.479Z" fill="#009E9C"/>
<path d="M406.681 471.925C406.351 472.041 406.001 472.091 405.652 472.071C405.303 472.051 404.961 471.963 404.646 471.81C404.527 471.699 404.445 471.554 404.412 471.394C404.379 471.235 404.396 471.069 404.461 470.92C404.498 470.795 404.561 470.679 404.647 470.581C404.733 470.483 404.839 470.406 404.958 470.353C406.057 469.822 408.577 470.85 408.692 470.897C408.727 470.911 408.756 470.935 408.777 470.965C408.797 470.996 408.808 471.033 408.808 471.07C408.808 471.107 408.798 471.144 408.78 471.176C408.761 471.208 408.735 471.235 408.704 471.255C408.052 471.541 407.375 471.766 406.681 471.925V471.925ZM405.351 470.619C405.275 470.637 405.201 470.664 405.132 470.7C405.06 470.726 404.995 470.77 404.943 470.826C404.89 470.882 404.852 470.95 404.831 471.024C404.727 471.371 404.831 471.486 404.901 471.521C405.34 471.891 406.958 471.521 408.103 471.093C407.232 470.733 406.292 470.571 405.351 470.619V470.619Z" fill="#009E9C"/>
<path d="M408.658 471.267H408.565C407.64 471.001 405.675 469.602 405.652 468.689C405.651 468.543 405.7 468.402 405.79 468.289C405.881 468.175 406.007 468.096 406.149 468.064C406.286 468.013 406.433 467.993 406.579 468.005C406.725 468.017 406.866 468.061 406.993 468.134C408.08 468.689 408.773 470.931 408.796 471.035C408.813 471.063 408.821 471.095 408.821 471.128C408.821 471.16 408.813 471.192 408.796 471.22C408.778 471.238 408.757 471.252 408.732 471.26C408.708 471.268 408.683 471.27 408.658 471.267V471.267ZM406.346 468.388H406.253C406.022 468.469 406.022 468.585 406.022 468.642C406.022 469.186 407.34 470.284 408.334 470.723C408.091 470.076 407.559 468.793 406.854 468.411C406.698 468.34 406.52 468.332 406.357 468.388H406.346Z" fill="#009E9C"/>
<path d="M346.638 473.289C345.598 473.289 344.592 473.139 344.257 472.677C344.169 472.554 344.122 472.406 344.122 472.255C344.122 472.104 344.169 471.956 344.257 471.833C344.323 471.72 344.411 471.622 344.517 471.544C344.622 471.467 344.742 471.411 344.869 471.382C346.222 471.012 349.066 472.631 349.181 472.7C349.217 472.717 349.245 472.746 349.262 472.782C349.279 472.818 349.283 472.858 349.274 472.896C349.27 472.936 349.253 472.973 349.225 473.002C349.198 473.031 349.163 473.051 349.124 473.058C348.304 473.209 347.472 473.286 346.638 473.289ZM345.355 471.706C345.232 471.686 345.108 471.686 344.985 471.706C344.907 471.722 344.833 471.754 344.767 471.799C344.701 471.845 344.646 471.904 344.604 471.972C344.465 472.214 344.523 472.33 344.604 472.399C344.985 472.931 347.031 472.943 348.546 472.723C347.557 472.183 346.474 471.837 345.355 471.706V471.706Z" fill="#009E9C"/>
<path d="M349.112 473.058H349.031C348.048 472.619 346.106 470.862 346.257 469.937C346.257 469.718 346.442 469.452 346.973 469.405C347.163 469.383 347.356 469.4 347.539 469.456C347.722 469.512 347.892 469.605 348.037 469.729C348.778 470.615 349.222 471.71 349.309 472.862C349.308 472.895 349.301 472.927 349.287 472.957C349.273 472.987 349.253 473.014 349.228 473.035C349.192 473.053 349.152 473.061 349.112 473.058ZM347.124 469.764H347.008C346.661 469.764 346.638 469.926 346.638 469.972C346.546 470.527 347.864 471.914 348.869 472.515C348.781 471.587 348.405 470.71 347.794 470.007C347.604 469.845 347.362 469.758 347.112 469.764H347.124Z" fill="#009E9C"/>
<path d="M358.036 472.873H349.91L349.1 454.042H357.227L358.036 472.873Z" fill="#FF8B7B"/>
<path d="M417.721 469.105L409.779 470.827L401.791 453.291L409.744 451.568L417.721 469.105Z" fill="#FF8B7B"/>
<path d="M409.004 470.03L417.94 468.099C418.096 468.066 418.259 468.087 418.402 468.158C418.545 468.23 418.659 468.347 418.726 468.492L421.824 475.22C421.907 475.383 421.95 475.563 421.949 475.746C421.948 475.928 421.905 476.108 421.821 476.271C421.738 476.433 421.617 476.573 421.469 476.68C421.321 476.787 421.149 476.857 420.969 476.885C417.848 477.497 416.287 477.648 412.368 478.492C409.952 479.023 404.496 480.353 401.155 481.069C397.814 481.786 396.67 478.584 397.976 477.994C403.814 475.324 406.242 472.977 407.825 470.793C408.112 470.403 408.531 470.131 409.004 470.03V470.03Z" fill="#263238"/>
<path d="M349.967 471.925H358.846C359.007 471.926 359.163 471.982 359.289 472.083C359.414 472.183 359.503 472.323 359.539 472.48L361.146 479.705C361.193 479.88 361.199 480.063 361.162 480.24C361.125 480.417 361.048 480.584 360.935 480.725C360.823 480.867 360.679 480.98 360.515 481.056C360.35 481.132 360.171 481.168 359.99 481.162C356.788 481.104 352.164 480.919 348.141 480.919C343.424 480.919 339.367 481.173 333.841 481.173C330.5 481.173 329.576 477.798 330.974 477.486C337.332 476.099 342.534 475.948 348.025 472.561C348.602 472.175 349.274 471.955 349.967 471.925V471.925Z" fill="#263238"/>
<path d="M382.833 195.364C390.451 197.11 396.705 216.565 396.705 216.565L381.48 228.206C377.528 223.981 374.74 218.803 373.388 213.178C370.695 202.982 375.041 193.561 382.833 195.364Z" fill="#009E9C"/>
<path opacity="0.4" d="M382.833 195.364C390.451 197.11 396.705 216.565 396.705 216.565L381.48 228.206C377.528 223.981 374.74 218.803 373.388 213.178C370.695 202.982 375.041 193.561 382.833 195.364Z" fill="black"/>
<path d="M342.754 218.565C340.858 220.611 338.962 222.438 336.974 224.345C335.991 225.27 334.997 226.195 333.98 227.085L332.442 228.437L332.061 228.772L331.402 229.304C330.724 229.846 329.973 230.29 329.171 230.622C328.279 231.001 327.32 231.197 326.35 231.2C325.522 231.204 324.7 231.059 323.923 230.772C323.061 230.444 322.274 229.945 321.611 229.304C320.764 228.476 320.143 227.446 319.807 226.31C319.632 225.75 319.519 225.173 319.472 224.588C319.412 223.903 319.412 223.215 319.472 222.53C319.53 221.975 319.599 221.49 319.692 221.039C320.008 219.463 320.457 217.916 321.033 216.415C321.553 214.988 322.151 213.591 322.825 212.23C323.564 210.762 324.27 209.687 324.975 208.461C327.839 203.77 331.107 199.337 334.743 195.214C338.342 191.115 342.308 187.354 346.592 183.977L350.846 188.359C347.864 192.358 344.927 196.647 342.211 200.867C339.507 205.062 337.037 209.404 334.812 213.872C334.315 214.958 333.656 216.184 333.344 217.062C332.931 218.083 332.572 219.125 332.269 220.183C331.978 221.137 331.758 222.11 331.61 223.096C331.602 223.25 331.602 223.405 331.61 223.559C331.61 223.651 331.61 223.698 331.61 223.455C331.591 223.195 331.541 222.939 331.46 222.692C331.21 221.872 330.752 221.132 330.13 220.542C329.578 220.034 328.929 219.641 328.223 219.386C327.602 219.151 326.945 219.029 326.281 219.027C325.643 219.02 325.01 219.142 324.42 219.386C324.22 219.467 324.027 219.564 323.842 219.675L324.281 219.27L325.68 217.998L328.443 215.409C330.269 213.687 332.107 211.849 333.841 210.138L342.754 218.565Z" fill="#FF8B7B"/>
<path opacity="0.2" d="M376.301 209.652C380.44 213.744 381.792 221.212 382.081 227.686L381.411 228.206C377.459 223.981 374.671 218.803 373.319 213.178C373.168 212.577 373.03 212.022 372.926 211.363L376.301 209.652Z" fill="black"/>
<path d="M334.674 203.456C333.009 212.242 331.969 230.287 336.789 266.007H380.324C380.625 259.337 376.428 226.761 382.867 195.306C378.056 194.382 373.191 193.768 368.302 193.468C362.141 193.115 355.966 193.115 349.806 193.468C347.771 193.653 345.76 193.954 344.026 194.266C341.719 194.67 339.591 195.766 337.921 197.407C336.251 199.048 335.118 201.157 334.674 203.456Z" fill="#009E9C"/>
<path opacity="0.4" d="M334.674 203.456C333.009 212.242 331.969 230.287 336.789 266.007H380.324C380.625 259.337 376.428 226.761 382.867 195.306C378.056 194.382 373.191 193.768 368.302 193.468C362.141 193.115 355.966 193.115 349.806 193.468C347.771 193.653 345.76 193.954 344.026 194.266C341.719 194.67 339.591 195.766 337.921 197.407C336.251 199.048 335.118 201.157 334.674 203.456Z" fill="black"/>
<path opacity="0.2" d="M341.332 216.484L333.471 214.6C333.229 219.363 333.205 225.258 333.552 232.553C337.171 228.437 341.795 222.01 341.332 216.484Z" fill="black"/>
<path opacity="0.2" d="M349.1 454.042L349.517 463.752H357.655L357.239 454.042H349.1Z" fill="black"/>
<path opacity="0.2" d="M409.744 451.568L401.791 453.291L405.906 462.331L413.86 460.608L409.744 451.568Z" fill="black"/>
<path d="M369.839 166.649C367.758 174.44 366.926 179.111 362.117 182.347C354.892 187.272 345.875 181.631 345.644 173.4C345.39 165.967 348.846 154.465 357.204 152.893C359.041 152.548 360.935 152.677 362.708 153.266C364.481 153.856 366.075 154.888 367.339 156.264C368.603 157.641 369.496 159.316 369.933 161.133C370.371 162.95 370.338 164.848 369.839 166.649V166.649Z" fill="#FF8B7B"/>
<path d="M351.597 166.938C351.204 165.898 349.413 157.84 351.1 155.748C352.788 153.656 372.036 155.17 374.879 157.967C379.607 162.591 376.324 166.753 371.157 172.105C367.273 176.128 367.123 180.66 365.157 181.353C361.689 182.509 356.395 181.423 355.331 177.758C354.268 174.094 351.597 166.938 351.597 166.938Z" fill="#263238"/>
<path d="M372.544 148.8C365.747 145.91 352.996 149.112 346.106 147.448C346.019 150.01 346.861 152.517 348.478 154.506C350.095 156.495 352.378 157.831 354.904 158.268C360.619 159.357 366.425 159.895 372.244 159.875C379.804 159.528 378.324 151.263 372.544 148.8Z" fill="#263238"/>
<path d="M373.608 158.21C376.091 158.454 378.591 157.977 380.81 156.835C382.081 159.909 375.087 160.753 373.608 158.21Z" fill="#263238"/>
<path d="M355.297 167.262C355.14 169.266 354.328 171.164 352.985 172.66C351.204 174.614 349.355 173.388 349.043 171.019C348.765 168.868 349.343 165.239 351.516 164.198C353.69 163.158 355.447 164.846 355.297 167.262Z" fill="#FF8B7B"/>
<path d="M352.222 266.042C352.222 266.042 361.47 328.177 366.521 351.459C372.059 376.948 401.814 461.279 401.814 461.279L416.368 458.123C416.368 458.123 395.56 389.387 390.936 353.748C387.352 326.373 380.312 266.019 380.312 266.019L352.222 266.042Z" fill="#009E9C"/>
<path d="M398.323 456.435C398.265 456.435 401.04 461.706 401.04 461.706L417.408 458.158L416.033 453.233L398.323 456.435Z" fill="#263238"/>
<path opacity="0.3" d="M358.059 288.179C368.729 290.272 367.596 330.061 366.313 350.534C363.238 336.061 358.73 308.224 355.655 288.468C356.4 288.1 357.248 287.998 358.059 288.179V288.179Z" fill="black"/>
<path d="M336.789 266.042C336.789 266.042 335.633 326.836 336.558 351.586C337.483 377.376 346.488 461.822 346.488 461.822H360.267C360.267 461.822 360.764 378.879 361.423 353.551C362.094 325.946 365.423 265.996 365.423 265.996L336.789 266.042Z" fill="#009E9C"/>
<path d="M343.841 456.389C343.771 456.389 344.615 462.099 344.615 462.099H361.366L361.828 457.001L343.841 456.389Z" fill="#263238"/>
<path d="M351.713 206.161C355.609 216.669 332.708 229.05 332.708 229.05L322.79 216.334C322.79 216.334 329.46 203.132 337.552 197.19C347.551 189.861 348.742 198.162 351.713 206.161Z" fill="#009E9C"/>
<path opacity="0.4" d="M351.713 206.161C355.609 216.669 332.708 229.05 332.708 229.05L322.79 216.334C322.79 216.334 329.46 203.132 337.552 197.19C347.551 189.861 348.742 198.162 351.713 206.161Z" fill="black"/>
<path d="M441.442 126.385C464.483 126.385 483.162 114.482 483.162 99.7975C483.162 85.1133 464.483 73.2095 441.442 73.2095C418.4 73.2095 399.722 85.1133 399.722 99.7975C399.722 114.482 418.4 126.385 441.442 126.385Z" fill="#009E9C"/>
<path d="M426.391 113.184C423.642 113.175 420.985 112.198 418.886 110.424C416.786 108.65 415.379 106.193 414.912 103.485C414.452 100.551 415.113 97.5523 416.765 95.0845C418.417 92.6168 420.937 90.8615 423.824 90.168V90.168C426.194 89.622 428.675 89.8325 430.918 90.7697C433.162 91.707 435.055 93.3239 436.332 95.3931L463.117 89.8674C464.146 89.642 465.223 89.8132 466.131 90.3468C467.04 90.8804 467.714 91.7371 468.018 92.7459C468.158 93.2762 468.189 93.8296 468.108 94.3722C468.027 94.9147 467.836 95.4351 467.547 95.9014C467.258 96.3677 466.877 96.7703 466.428 97.0844C465.978 97.3985 465.469 97.6176 464.932 97.7282L464.238 97.867C464.135 97.8854 464.038 97.9274 463.953 97.9895C463.869 98.0517 463.801 98.1323 463.753 98.2253C463.71 98.3197 463.688 98.4222 463.688 98.5259C463.688 98.6295 463.71 98.732 463.753 98.8264L464.226 100.052C464.385 100.449 464.401 100.889 464.27 101.296C464.139 101.704 463.87 102.052 463.51 102.283C463.226 102.458 462.985 102.697 462.807 102.979C462.629 103.261 462.517 103.581 462.481 103.913C462.447 104.294 462.293 104.654 462.042 104.943C461.791 105.232 461.455 105.433 461.082 105.52L460.539 105.635C460.162 105.705 459.773 105.653 459.428 105.486C459.083 105.32 458.8 105.048 458.62 104.71C458.38 104.307 458.02 103.989 457.591 103.8C457.161 103.611 456.684 103.561 456.224 103.656C455.765 103.752 455.347 103.988 455.028 104.332C454.709 104.677 454.506 105.112 454.447 105.577C454.415 105.956 454.263 106.315 454.013 106.601C453.764 106.888 453.43 107.088 453.06 107.173L452.516 107.288C452.14 107.356 451.751 107.303 451.407 107.137C451.062 106.971 450.779 106.7 450.597 106.364C450.424 106.077 450.191 105.831 449.913 105.644C449.636 105.456 449.321 105.331 448.99 105.277C448.546 105.223 448.136 105.01 447.838 104.675C447.54 104.341 447.374 103.91 447.372 103.462V102.144C447.367 102.041 447.34 101.94 447.293 101.848C447.246 101.757 447.179 101.676 447.098 101.613C447.017 101.549 446.923 101.504 446.823 101.48C446.722 101.456 446.618 101.454 446.517 101.474L437.974 103.231C437.625 105.598 436.556 107.799 434.912 109.537C433.267 111.274 431.128 112.463 428.784 112.941C427.996 113.102 427.194 113.184 426.391 113.184V113.184ZM424.079 91.22C421.457 91.8324 419.164 93.4156 417.663 95.6506C416.161 97.8856 415.562 100.607 415.987 103.265C416.441 105.739 417.766 107.968 419.722 109.55C421.677 111.132 424.134 111.961 426.648 111.889C429.162 111.816 431.568 110.846 433.429 109.154C435.29 107.462 436.484 105.16 436.795 102.664V102.248L446.216 100.341C446.486 100.275 446.768 100.271 447.04 100.328C447.312 100.385 447.568 100.502 447.789 100.67C448.011 100.838 448.192 101.054 448.32 101.301C448.447 101.548 448.519 101.82 448.528 102.098V103.416C448.531 103.573 448.587 103.724 448.688 103.844C448.789 103.964 448.929 104.045 449.083 104.075C449.588 104.147 450.07 104.334 450.493 104.62C450.916 104.906 451.268 105.285 451.522 105.728C451.583 105.852 451.682 105.955 451.804 106.021C451.926 106.088 452.066 106.114 452.204 106.098L452.736 105.982C452.871 105.947 452.991 105.87 453.078 105.762C453.166 105.654 453.216 105.52 453.221 105.381C453.294 104.661 453.594 103.983 454.077 103.445C454.561 102.907 455.203 102.537 455.91 102.388C456.618 102.238 457.355 102.318 458.015 102.615C458.674 102.912 459.222 103.411 459.579 104.04C459.639 104.164 459.735 104.266 459.855 104.332C459.976 104.399 460.113 104.426 460.25 104.41L460.805 104.294C460.937 104.258 461.055 104.179 461.14 104.071C461.225 103.963 461.274 103.831 461.279 103.693C461.336 103.186 461.508 102.698 461.783 102.267C462.057 101.836 462.427 101.474 462.862 101.208C462.99 101.116 463.083 100.984 463.127 100.833C463.171 100.683 463.163 100.521 463.105 100.375L462.631 99.1501C462.533 98.8975 462.492 98.6265 462.509 98.3561C462.527 98.0857 462.603 97.8225 462.733 97.5847C462.863 97.3469 463.043 97.1403 463.261 96.9794C463.479 96.8185 463.73 96.7072 463.995 96.6532L464.7 96.5029C465.082 96.4215 465.443 96.264 465.763 96.0398C466.082 95.8155 466.353 95.5292 466.559 95.1979C466.765 94.8666 466.902 94.4971 466.962 94.1115C467.022 93.726 467.004 93.3323 466.908 92.954C466.683 92.2265 466.19 91.6112 465.53 91.2317C464.87 90.8522 464.09 90.7365 463.348 90.9078L435.812 96.63L435.604 96.2717C434.498 94.3022 432.78 92.7463 430.711 91.8391C428.643 90.9319 426.335 90.7227 424.136 91.2431L424.079 91.22ZM426.391 108.884C424.955 108.9 423.545 108.498 422.333 107.728C420.9 106.787 419.837 105.377 419.326 103.74C418.815 102.103 418.888 100.34 419.532 98.7507C420.176 97.1614 421.351 95.8446 422.857 95.0249C424.364 94.2051 426.107 93.9331 427.792 94.2553C429.476 94.5774 430.996 95.4738 432.094 96.7915C433.191 98.1092 433.798 99.7667 433.809 101.481C433.821 103.196 433.238 104.862 432.16 106.195C431.081 107.528 429.573 108.445 427.893 108.791V108.791C427.402 108.88 426.902 108.919 426.402 108.907L426.391 108.884ZM426.391 95.2313C425.96 95.2337 425.53 95.2763 425.107 95.3584C424.302 95.53 423.538 95.8585 422.86 96.3251C422.182 96.7918 421.602 97.3875 421.154 98.0783C420.705 98.7691 420.398 99.5413 420.248 100.351C420.098 101.161 420.11 101.992 420.281 102.797C420.453 103.603 420.781 104.366 421.248 105.045C421.715 105.723 422.31 106.303 423.001 106.751C423.692 107.199 424.464 107.507 425.274 107.657C426.083 107.806 426.915 107.795 427.72 107.624V107.624C428.929 107.372 430.036 106.768 430.903 105.888C431.769 105.008 432.355 103.891 432.588 102.678C432.82 101.465 432.688 100.211 432.209 99.0727C431.729 97.9346 430.924 96.9641 429.893 96.2832C428.87 95.6026 427.666 95.2442 426.437 95.2544L426.391 95.2313Z" fill="white"/>
<path opacity="0.6" d="M407.49 141.98C415.062 141.98 421.2 138.067 421.2 133.241C421.2 128.414 415.062 124.501 407.49 124.501C399.918 124.501 393.78 128.414 393.78 133.241C393.78 138.067 399.918 141.98 407.49 141.98Z" fill="#009E9C"/>
<path opacity="0.3" d="M385.676 145.564C388.785 145.564 391.306 143.959 391.306 141.98C391.306 140.001 388.785 138.396 385.676 138.396C382.567 138.396 380.047 140.001 380.047 141.98C380.047 143.959 382.567 145.564 385.676 145.564Z" fill="#009E9C"/>
</svg>
